M48
;DRILL file {KiCad 4.0.7-e2-6376~58~ubuntu14.04.1} date Sat Jan 13 14:56:02 2018
;FORMAT={-:-/ absolute / inch / decimal}
FMAT,2
INCH,TZ
T1C0.016
T2C0.039
%
G90
G05
M72
T1
X4.14Y-4.96
X4.145Y-2.845
X4.15Y-3.175
X4.15Y-4.6
X4.25Y-4.05
X4.26Y-3.455
X4.265Y-3.69
X4.275Y-4.5
X4.29Y-4.605
X4.35Y-4.47
X4.36Y-4.96
X4.365Y-2.96
X4.375Y-3.45
X4.375Y-3.7
X4.375Y-4.875
X4.385Y-4.795
X4.4Y-3.5
X4.425Y-3.3
X4.45Y-3.625
X4.475Y-3.32
X4.475Y-3.43
X4.48Y-4.795
X4.525Y-4.35
X4.525Y-4.45
X4.525Y-4.525
X4.575Y-4.97
X4.6297Y-4.5856
X4.66Y-3.13
X4.675Y-4.965
X4.7Y-4.15
X4.725Y-3.375
X4.725Y-4.925
X4.735Y-4.825
X4.785Y-3.57
X4.79Y-3.625
X4.81Y-4.275
X4.835Y-4.045
X4.835Y-4.165
X4.845Y-4.48
X4.855Y-4.745
X4.87Y-2.84
X4.91Y-3.87
X4.95Y-3.325
X4.95Y-3.425
X4.95Y-3.485
X4.95Y-3.795
X4.975Y-3.975
X5.Y-4.075
X5.015Y-4.55
X5.03Y-3.14
X5.05Y-4.1
X5.06Y-4.425
X5.11Y-4.335
X5.125Y-4.12
X5.15Y-4.225
X5.175Y-4.425
X5.175Y-4.5
X5.195Y-4.04
X5.2Y-3.53
X5.2Y-3.855
X5.225Y-4.675
X5.27Y-4.035
X5.285Y-3.73
X5.285Y-3.85
X5.3Y-4.915
X5.315Y-4.17
X5.32Y-4.35
X5.32Y-4.645
X5.325Y-3.555
X5.33Y-4.735
X5.335Y-4.8
X5.345Y-3.73
X5.4Y-3.65
X5.4Y-3.895
X5.4Y-4.04
X5.425Y-3.54
X5.44Y-4.53
X5.445Y-3.325
X5.45Y-3.43
X5.46Y-3.79
X5.4673Y-3.9343
X5.47Y-4.135
X5.475Y-4.605
X5.485Y-4.745
X5.515Y-3.635
X5.54Y-4.065
X5.575Y-3.955
X5.575Y-4.45
X5.585Y-3.77
X5.595Y-3.565
X5.6Y-3.65
X5.6Y-4.6
X5.615Y-4.045
X5.65Y-3.83
X5.65Y-3.95
X5.685Y-3.95
X5.7Y-3.75
X5.74Y-4.735
X5.74Y-4.95
X5.745Y-3.435
X5.745Y-4.345
X5.75Y-4.025
X5.755Y-2.845
T2
X4.475Y-4.9
X4.5Y-3.85
X4.5Y-3.95
X4.5Y-4.05
X4.6Y-3.85
X4.6Y-3.95
X4.6Y-4.05
X5.525Y-3.275
X5.525Y-3.375
X5.6Y-4.75
X5.6Y-4.85
T0
M30
