G04 #@! TF.FileFunction,Legend,Top*
%FSLAX46Y46*%
G04 Gerber Fmt 4.6, Leading zero omitted, Abs format (unit mm)*
G04 Created by KiCad (PCBNEW 4.0.7-e2-6376~58~ubuntu14.04.1) date Sat Jan 13 14:54:45 2018*
%MOMM*%
%LPD*%
G01*
G04 APERTURE LIST*
%ADD10C,0.100000*%
%ADD11C,0.120000*%
%ADD12C,0.150000*%
G04 APERTURE END LIST*
D10*
D11*
X109990000Y-103720000D02*
X110990000Y-103720000D01*
X110990000Y-102020000D02*
X109990000Y-102020000D01*
X133565000Y-108450000D02*
X133565000Y-107450000D01*
X131865000Y-107450000D02*
X131865000Y-108450000D01*
X134405000Y-92210000D02*
X134405000Y-93210000D01*
X136105000Y-93210000D02*
X136105000Y-92210000D01*
X122135000Y-119245000D02*
X122135000Y-118245000D01*
X120435000Y-118245000D02*
X120435000Y-119245000D01*
X135470000Y-108450000D02*
X135470000Y-107450000D01*
X133770000Y-107450000D02*
X133770000Y-108450000D01*
X120435000Y-114435000D02*
X120435000Y-115435000D01*
X122135000Y-115435000D02*
X122135000Y-114435000D01*
X128690000Y-73160000D02*
X128690000Y-74160000D01*
X130390000Y-74160000D02*
X130390000Y-73160000D01*
X126430000Y-71860000D02*
X125030000Y-71860000D01*
X125030000Y-71860000D02*
X125030000Y-74660000D01*
X126430000Y-71860000D02*
X126430000Y-74660000D01*
X139005000Y-87055000D02*
X141665000Y-87055000D01*
X139005000Y-84455000D02*
X139005000Y-87055000D01*
X141665000Y-84455000D02*
X141665000Y-87055000D01*
X139005000Y-84455000D02*
X141665000Y-84455000D01*
X139005000Y-83185000D02*
X139005000Y-81855000D01*
X139005000Y-81855000D02*
X140335000Y-81855000D01*
X112335000Y-125790000D02*
X114995000Y-125790000D01*
X112335000Y-125730000D02*
X112335000Y-125790000D01*
X114995000Y-125730000D02*
X114995000Y-125790000D01*
X112335000Y-125730000D02*
X114995000Y-125730000D01*
X112335000Y-124460000D02*
X112335000Y-123130000D01*
X112335000Y-123130000D02*
X113665000Y-123130000D01*
X140910000Y-124520000D02*
X143570000Y-124520000D01*
X140910000Y-121920000D02*
X140910000Y-124520000D01*
X143570000Y-121920000D02*
X143570000Y-124520000D01*
X140910000Y-121920000D02*
X143570000Y-121920000D01*
X140910000Y-120650000D02*
X140910000Y-119320000D01*
X140910000Y-119320000D02*
X142240000Y-119320000D01*
X118170000Y-96460000D02*
X112970000Y-96460000D01*
X118170000Y-101600000D02*
X118170000Y-96460000D01*
X112970000Y-104200000D02*
X112970000Y-96460000D01*
X118170000Y-101600000D02*
X115570000Y-101600000D01*
X115570000Y-101600000D02*
X115570000Y-104200000D01*
X115570000Y-104200000D02*
X112970000Y-104200000D01*
X118170000Y-102870000D02*
X118170000Y-104200000D01*
X118170000Y-104200000D02*
X116840000Y-104200000D01*
X124850000Y-78070000D02*
X124850000Y-76870000D01*
X126610000Y-76870000D02*
X126610000Y-78070000D01*
X130420000Y-76870000D02*
X130420000Y-78070000D01*
X128660000Y-78070000D02*
X128660000Y-76870000D01*
X111090000Y-92955000D02*
X109890000Y-92955000D01*
X109890000Y-91195000D02*
X111090000Y-91195000D01*
D12*
X138245000Y-96705000D02*
X138020000Y-96705000D01*
X138245000Y-103955000D02*
X137920000Y-103955000D01*
X130995000Y-103955000D02*
X131320000Y-103955000D01*
X130995000Y-96705000D02*
X131320000Y-96705000D01*
X138245000Y-96705000D02*
X138245000Y-97030000D01*
X130995000Y-96705000D02*
X130995000Y-97030000D01*
X130995000Y-103955000D02*
X130995000Y-103630000D01*
X138245000Y-103955000D02*
X138245000Y-103630000D01*
X138020000Y-96705000D02*
X138020000Y-95280000D01*
D11*
X123124000Y-88638000D02*
X123124000Y-89688000D01*
X123124000Y-89688000D02*
X121274000Y-89688000D01*
X123124000Y-86638000D02*
X123124000Y-87638000D01*
X123104000Y-86628000D02*
X120674000Y-86628000D01*
X139140000Y-77680000D02*
X139140000Y-78330000D01*
X139140000Y-78330000D02*
X132640000Y-78330000D01*
X132640000Y-78330000D02*
X132640000Y-77680000D01*
X139140000Y-72180000D02*
X139140000Y-71530000D01*
X139140000Y-71530000D02*
X132640000Y-71530000D01*
X132640000Y-71530000D02*
X132640000Y-72180000D01*
X139140000Y-73680000D02*
X139140000Y-76180000D01*
X132640000Y-73680000D02*
X132640000Y-76180000D01*
X117550000Y-77680000D02*
X117550000Y-78330000D01*
X117550000Y-78330000D02*
X111050000Y-78330000D01*
X111050000Y-78330000D02*
X111050000Y-77680000D01*
X117550000Y-72180000D02*
X117550000Y-71530000D01*
X117550000Y-71530000D02*
X111050000Y-71530000D01*
X111050000Y-71530000D02*
X111050000Y-72180000D01*
X117550000Y-73680000D02*
X117550000Y-76180000D01*
X111050000Y-73680000D02*
X111050000Y-76180000D01*
D12*
X106594614Y-103298263D02*
X106546995Y-103345882D01*
X106404138Y-103393501D01*
X106308900Y-103393501D01*
X106166042Y-103345882D01*
X106070804Y-103250644D01*
X106023185Y-103155406D01*
X105975566Y-102964930D01*
X105975566Y-102822072D01*
X106023185Y-102631596D01*
X106070804Y-102536358D01*
X106166042Y-102441120D01*
X106308900Y-102393501D01*
X106404138Y-102393501D01*
X106546995Y-102441120D01*
X106594614Y-102488739D01*
X107546995Y-103393501D02*
X106975566Y-103393501D01*
X107261280Y-103393501D02*
X107261280Y-102393501D01*
X107166042Y-102536358D01*
X107070804Y-102631596D01*
X106975566Y-102679215D01*
X134572143Y-108116666D02*
X134619762Y-108164285D01*
X134667381Y-108307142D01*
X134667381Y-108402380D01*
X134619762Y-108545238D01*
X134524524Y-108640476D01*
X134429286Y-108688095D01*
X134238810Y-108735714D01*
X134095952Y-108735714D01*
X133905476Y-108688095D01*
X133810238Y-108640476D01*
X133715000Y-108545238D01*
X133667381Y-108402380D01*
X133667381Y-108307142D01*
X133715000Y-108164285D01*
X133762619Y-108116666D01*
X133762619Y-107735714D02*
X133715000Y-107688095D01*
X133667381Y-107592857D01*
X133667381Y-107354761D01*
X133715000Y-107259523D01*
X133762619Y-107211904D01*
X133857857Y-107164285D01*
X133953095Y-107164285D01*
X134095952Y-107211904D01*
X134667381Y-107783333D01*
X134667381Y-107164285D01*
X134112143Y-92876666D02*
X134159762Y-92924285D01*
X134207381Y-93067142D01*
X134207381Y-93162380D01*
X134159762Y-93305238D01*
X134064524Y-93400476D01*
X133969286Y-93448095D01*
X133778810Y-93495714D01*
X133635952Y-93495714D01*
X133445476Y-93448095D01*
X133350238Y-93400476D01*
X133255000Y-93305238D01*
X133207381Y-93162380D01*
X133207381Y-93067142D01*
X133255000Y-92924285D01*
X133302619Y-92876666D01*
X133207381Y-92543333D02*
X133207381Y-91924285D01*
X133588333Y-92257619D01*
X133588333Y-92114761D01*
X133635952Y-92019523D01*
X133683571Y-91971904D01*
X133778810Y-91924285D01*
X134016905Y-91924285D01*
X134112143Y-91971904D01*
X134159762Y-92019523D01*
X134207381Y-92114761D01*
X134207381Y-92400476D01*
X134159762Y-92495714D01*
X134112143Y-92543333D01*
X123142143Y-118911666D02*
X123189762Y-118959285D01*
X123237381Y-119102142D01*
X123237381Y-119197380D01*
X123189762Y-119340238D01*
X123094524Y-119435476D01*
X122999286Y-119483095D01*
X122808810Y-119530714D01*
X122665952Y-119530714D01*
X122475476Y-119483095D01*
X122380238Y-119435476D01*
X122285000Y-119340238D01*
X122237381Y-119197380D01*
X122237381Y-119102142D01*
X122285000Y-118959285D01*
X122332619Y-118911666D01*
X122570714Y-118054523D02*
X123237381Y-118054523D01*
X122189762Y-118292619D02*
X122904048Y-118530714D01*
X122904048Y-117911666D01*
X136477143Y-108116666D02*
X136524762Y-108164285D01*
X136572381Y-108307142D01*
X136572381Y-108402380D01*
X136524762Y-108545238D01*
X136429524Y-108640476D01*
X136334286Y-108688095D01*
X136143810Y-108735714D01*
X136000952Y-108735714D01*
X135810476Y-108688095D01*
X135715238Y-108640476D01*
X135620000Y-108545238D01*
X135572381Y-108402380D01*
X135572381Y-108307142D01*
X135620000Y-108164285D01*
X135667619Y-108116666D01*
X135572381Y-107211904D02*
X135572381Y-107688095D01*
X136048571Y-107735714D01*
X136000952Y-107688095D01*
X135953333Y-107592857D01*
X135953333Y-107354761D01*
X136000952Y-107259523D01*
X136048571Y-107211904D01*
X136143810Y-107164285D01*
X136381905Y-107164285D01*
X136477143Y-107211904D01*
X136524762Y-107259523D01*
X136572381Y-107354761D01*
X136572381Y-107592857D01*
X136524762Y-107688095D01*
X136477143Y-107735714D01*
X123460783Y-115391226D02*
X123508402Y-115438845D01*
X123556021Y-115581702D01*
X123556021Y-115676940D01*
X123508402Y-115819798D01*
X123413164Y-115915036D01*
X123317926Y-115962655D01*
X123127450Y-116010274D01*
X122984592Y-116010274D01*
X122794116Y-115962655D01*
X122698878Y-115915036D01*
X122603640Y-115819798D01*
X122556021Y-115676940D01*
X122556021Y-115581702D01*
X122603640Y-115438845D01*
X122651259Y-115391226D01*
X122556021Y-114534083D02*
X122556021Y-114724560D01*
X122603640Y-114819798D01*
X122651259Y-114867417D01*
X122794116Y-114962655D01*
X122984592Y-115010274D01*
X123365545Y-115010274D01*
X123460783Y-114962655D01*
X123508402Y-114915036D01*
X123556021Y-114819798D01*
X123556021Y-114629321D01*
X123508402Y-114534083D01*
X123460783Y-114486464D01*
X123365545Y-114438845D01*
X123127450Y-114438845D01*
X123032211Y-114486464D01*
X122984592Y-114534083D01*
X122936973Y-114629321D01*
X122936973Y-114819798D01*
X122984592Y-114915036D01*
X123032211Y-114962655D01*
X123127450Y-115010274D01*
X128397143Y-73826666D02*
X128444762Y-73874285D01*
X128492381Y-74017142D01*
X128492381Y-74112380D01*
X128444762Y-74255238D01*
X128349524Y-74350476D01*
X128254286Y-74398095D01*
X128063810Y-74445714D01*
X127920952Y-74445714D01*
X127730476Y-74398095D01*
X127635238Y-74350476D01*
X127540000Y-74255238D01*
X127492381Y-74112380D01*
X127492381Y-74017142D01*
X127540000Y-73874285D01*
X127587619Y-73826666D01*
X128492381Y-73350476D02*
X128492381Y-73160000D01*
X128444762Y-73064761D01*
X128397143Y-73017142D01*
X128254286Y-72921904D01*
X128063810Y-72874285D01*
X127682857Y-72874285D01*
X127587619Y-72921904D01*
X127540000Y-72969523D01*
X127492381Y-73064761D01*
X127492381Y-73255238D01*
X127540000Y-73350476D01*
X127587619Y-73398095D01*
X127682857Y-73445714D01*
X127920952Y-73445714D01*
X128016190Y-73398095D01*
X128063810Y-73350476D01*
X128111429Y-73255238D01*
X128111429Y-73064761D01*
X128063810Y-72969523D01*
X128016190Y-72921904D01*
X127920952Y-72874285D01*
X127632381Y-74398095D02*
X126632381Y-74398095D01*
X126632381Y-74160000D01*
X126680000Y-74017142D01*
X126775238Y-73921904D01*
X126870476Y-73874285D01*
X127060952Y-73826666D01*
X127203810Y-73826666D01*
X127394286Y-73874285D01*
X127489524Y-73921904D01*
X127584762Y-74017142D01*
X127632381Y-74160000D01*
X127632381Y-74398095D01*
X127632381Y-72874285D02*
X127632381Y-73445714D01*
X127632381Y-73160000D02*
X126632381Y-73160000D01*
X126775238Y-73255238D01*
X126870476Y-73350476D01*
X126918095Y-73445714D01*
X140001667Y-80307381D02*
X140001667Y-81021667D01*
X139954047Y-81164524D01*
X139858809Y-81259762D01*
X139715952Y-81307381D01*
X139620714Y-81307381D01*
X141001667Y-81307381D02*
X140430238Y-81307381D01*
X140715952Y-81307381D02*
X140715952Y-80307381D01*
X140620714Y-80450238D01*
X140525476Y-80545476D01*
X140430238Y-80593095D01*
X113331667Y-121582381D02*
X113331667Y-122296667D01*
X113284047Y-122439524D01*
X113188809Y-122534762D01*
X113045952Y-122582381D01*
X112950714Y-122582381D01*
X113760238Y-121677619D02*
X113807857Y-121630000D01*
X113903095Y-121582381D01*
X114141191Y-121582381D01*
X114236429Y-121630000D01*
X114284048Y-121677619D01*
X114331667Y-121772857D01*
X114331667Y-121868095D01*
X114284048Y-122010952D01*
X113712619Y-122582381D01*
X114331667Y-122582381D01*
X141906667Y-117772381D02*
X141906667Y-118486667D01*
X141859047Y-118629524D01*
X141763809Y-118724762D01*
X141620952Y-118772381D01*
X141525714Y-118772381D01*
X142287619Y-117772381D02*
X142906667Y-117772381D01*
X142573333Y-118153333D01*
X142716191Y-118153333D01*
X142811429Y-118200952D01*
X142859048Y-118248571D01*
X142906667Y-118343810D01*
X142906667Y-118581905D01*
X142859048Y-118677143D01*
X142811429Y-118724762D01*
X142716191Y-118772381D01*
X142430476Y-118772381D01*
X142335238Y-118724762D01*
X142287619Y-118677143D01*
X115236667Y-104652381D02*
X115236667Y-105366667D01*
X115189047Y-105509524D01*
X115093809Y-105604762D01*
X114950952Y-105652381D01*
X114855714Y-105652381D01*
X116141429Y-104985714D02*
X116141429Y-105652381D01*
X115903333Y-104604762D02*
X115665238Y-105319048D01*
X116284286Y-105319048D01*
X127832381Y-77636666D02*
X127356190Y-77970000D01*
X127832381Y-78208095D02*
X126832381Y-78208095D01*
X126832381Y-77827142D01*
X126880000Y-77731904D01*
X126927619Y-77684285D01*
X127022857Y-77636666D01*
X127165714Y-77636666D01*
X127260952Y-77684285D01*
X127308571Y-77731904D01*
X127356190Y-77827142D01*
X127356190Y-78208095D01*
X127832381Y-76684285D02*
X127832381Y-77255714D01*
X127832381Y-76970000D02*
X126832381Y-76970000D01*
X126975238Y-77065238D01*
X127070476Y-77160476D01*
X127118095Y-77255714D01*
X128342381Y-77636666D02*
X127866190Y-77970000D01*
X128342381Y-78208095D02*
X127342381Y-78208095D01*
X127342381Y-77827142D01*
X127390000Y-77731904D01*
X127437619Y-77684285D01*
X127532857Y-77636666D01*
X127675714Y-77636666D01*
X127770952Y-77684285D01*
X127818571Y-77731904D01*
X127866190Y-77827142D01*
X127866190Y-78208095D01*
X127437619Y-77255714D02*
X127390000Y-77208095D01*
X127342381Y-77112857D01*
X127342381Y-76874761D01*
X127390000Y-76779523D01*
X127437619Y-76731904D01*
X127532857Y-76684285D01*
X127628095Y-76684285D01*
X127770952Y-76731904D01*
X128342381Y-77303333D01*
X128342381Y-76684285D01*
X106772414Y-91242141D02*
X106439080Y-90765950D01*
X106200985Y-91242141D02*
X106200985Y-90242141D01*
X106581938Y-90242141D01*
X106677176Y-90289760D01*
X106724795Y-90337379D01*
X106772414Y-90432617D01*
X106772414Y-90575474D01*
X106724795Y-90670712D01*
X106677176Y-90718331D01*
X106581938Y-90765950D01*
X106200985Y-90765950D01*
X107105747Y-90242141D02*
X107724795Y-90242141D01*
X107391461Y-90623093D01*
X107534319Y-90623093D01*
X107629557Y-90670712D01*
X107677176Y-90718331D01*
X107724795Y-90813570D01*
X107724795Y-91051665D01*
X107677176Y-91146903D01*
X107629557Y-91194522D01*
X107534319Y-91242141D01*
X107248604Y-91242141D01*
X107153366Y-91194522D01*
X107105747Y-91146903D01*
X140122381Y-101091905D02*
X140931905Y-101091905D01*
X141027143Y-101044286D01*
X141074762Y-100996667D01*
X141122381Y-100901429D01*
X141122381Y-100710952D01*
X141074762Y-100615714D01*
X141027143Y-100568095D01*
X140931905Y-100520476D01*
X140122381Y-100520476D01*
X140217619Y-100091905D02*
X140170000Y-100044286D01*
X140122381Y-99949048D01*
X140122381Y-99710952D01*
X140170000Y-99615714D01*
X140217619Y-99568095D01*
X140312857Y-99520476D01*
X140408095Y-99520476D01*
X140550952Y-99568095D01*
X141122381Y-100139524D01*
X141122381Y-99520476D01*
X121412095Y-85140381D02*
X121412095Y-85949905D01*
X121459714Y-86045143D01*
X121507333Y-86092762D01*
X121602571Y-86140381D01*
X121793048Y-86140381D01*
X121888286Y-86092762D01*
X121935905Y-86045143D01*
X121983524Y-85949905D01*
X121983524Y-85140381D01*
X122364476Y-85140381D02*
X122983524Y-85140381D01*
X122650190Y-85521333D01*
X122793048Y-85521333D01*
X122888286Y-85568952D01*
X122935905Y-85616571D01*
X122983524Y-85711810D01*
X122983524Y-85949905D01*
X122935905Y-86045143D01*
X122888286Y-86092762D01*
X122793048Y-86140381D01*
X122507333Y-86140381D01*
X122412095Y-86092762D01*
X122364476Y-86045143D01*
X132321467Y-75347462D02*
X132464324Y-75395081D01*
X132702420Y-75395081D01*
X132797658Y-75347462D01*
X132845277Y-75299843D01*
X132892896Y-75204605D01*
X132892896Y-75109367D01*
X132845277Y-75014129D01*
X132797658Y-74966510D01*
X132702420Y-74918890D01*
X132511943Y-74871271D01*
X132416705Y-74823652D01*
X132369086Y-74776033D01*
X132321467Y-74680795D01*
X132321467Y-74585557D01*
X132369086Y-74490319D01*
X132416705Y-74442700D01*
X132511943Y-74395081D01*
X132750039Y-74395081D01*
X132892896Y-74442700D01*
X133226229Y-74395081D02*
X133464324Y-75395081D01*
X133654801Y-74680795D01*
X133845277Y-75395081D01*
X134083372Y-74395081D01*
X134988134Y-75395081D02*
X134416705Y-75395081D01*
X134702419Y-75395081D02*
X134702419Y-74395081D01*
X134607181Y-74537938D01*
X134511943Y-74633176D01*
X134416705Y-74680795D01*
X106527767Y-72909062D02*
X106670624Y-72956681D01*
X106908720Y-72956681D01*
X107003958Y-72909062D01*
X107051577Y-72861443D01*
X107099196Y-72766205D01*
X107099196Y-72670967D01*
X107051577Y-72575729D01*
X107003958Y-72528110D01*
X106908720Y-72480490D01*
X106718243Y-72432871D01*
X106623005Y-72385252D01*
X106575386Y-72337633D01*
X106527767Y-72242395D01*
X106527767Y-72147157D01*
X106575386Y-72051919D01*
X106623005Y-72004300D01*
X106718243Y-71956681D01*
X106956339Y-71956681D01*
X107099196Y-72004300D01*
X107432529Y-71956681D02*
X107670624Y-72956681D01*
X107861101Y-72242395D01*
X108051577Y-72956681D01*
X108289672Y-71956681D01*
X108623005Y-72051919D02*
X108670624Y-72004300D01*
X108765862Y-71956681D01*
X109003958Y-71956681D01*
X109099196Y-72004300D01*
X109146815Y-72051919D01*
X109194434Y-72147157D01*
X109194434Y-72242395D01*
X109146815Y-72385252D01*
X108575386Y-72956681D01*
X109194434Y-72956681D01*
X131984762Y-90287619D02*
X131889524Y-90240000D01*
X131794286Y-90144762D01*
X131651429Y-90001905D01*
X131556190Y-89954286D01*
X131460952Y-89954286D01*
X131508571Y-90192381D02*
X131413333Y-90144762D01*
X131318095Y-90049524D01*
X131270476Y-89859048D01*
X131270476Y-89525714D01*
X131318095Y-89335238D01*
X131413333Y-89240000D01*
X131508571Y-89192381D01*
X131699048Y-89192381D01*
X131794286Y-89240000D01*
X131889524Y-89335238D01*
X131937143Y-89525714D01*
X131937143Y-89859048D01*
X131889524Y-90049524D01*
X131794286Y-90144762D01*
X131699048Y-90192381D01*
X131508571Y-90192381D01*
X132889524Y-90192381D02*
X132318095Y-90192381D01*
X132603809Y-90192381D02*
X132603809Y-89192381D01*
X132508571Y-89335238D01*
X132413333Y-89430476D01*
X132318095Y-89478095D01*
M02*
